<svg width="9" height="9" viewBox="0 0 9 9" fill="none" xmlns="http://www.w3.org/2000/svg">
<g id="plus (Stroke)">
<path id="plus (Stroke)_2" d="M4.49998 0.333374C4.78763 0.333374 5.02081 0.566559 5.02081 0.854207V3.97921H8.14581C8.43346 3.97921 8.66665 4.21239 8.66665 4.50004C8.66665 4.78769 8.43346 5.02087 8.14581 5.02087H5.02081V8.14587C5.02081 8.43352 4.78763 8.66671 4.49998 8.66671C4.21233 8.66671 3.97915 8.43352 3.97915 8.14587V5.02087H0.854146C0.566498 5.02087 0.333313 4.78769 0.333313 4.50004C0.333313 4.21239 0.566498 3.97921 0.854146 3.97921H3.97915V0.854207C3.97915 0.566559 4.21233 0.333374 4.49998 0.333374Z" fill="white"/>
</g>
</svg>
