<svg width="19" height="20" viewBox="0 0 19 20" fill="none" xmlns="http://www.w3.org/2000/svg">
<g id="search.svg">
<path id="Vector" opacity="0.3" d="M11.3152 13.9226C11.0061 13.5971 11.0061 13.0695 11.3152 12.7441C11.6244 12.4186 12.1256 12.4186 12.4348 12.7441L15.6014 16.0775C15.9106 16.4029 15.9106 16.9305 15.6014 17.256C15.2923 17.5814 14.791 17.5814 14.4819 17.256L11.3152 13.9226Z" fill="#215480"/>
<path id="Vector_2" d="M8.70834 13.3333C10.8945 13.3333 12.6666 11.4679 12.6666 9.16666C12.6666 6.86548 10.8945 4.99998 8.70834 4.99998C6.52222 4.99998 4.74999 6.86548 4.74999 9.16666C4.74999 11.4679 6.52222 13.3333 8.70834 13.3333ZM8.70834 15C5.64774 15 3.16666 12.3883 3.16666 9.16666C3.16666 5.94499 5.64774 3.33331 8.70834 3.33331C11.7689 3.33331 14.25 5.94499 14.25 9.16666C14.25 12.3883 11.7689 15 8.70834 15Z" fill="#215480"/>
</g>
</svg>
