<svg width="17" height="17" viewBox="0 0 17 17" fill="none" xmlns="http://www.w3.org/2000/svg">
<g id="&#240;&#159;&#166;&#134; icon &#34;person&#34;">
<g id="Vector">
<path d="M8.5 0C6.1625 0 4.25 2.38 4.25 5.3125C4.25 8.245 6.1625 10.625 8.5 10.625C10.8375 10.625 12.75 8.245 12.75 5.3125C12.75 2.38 10.8375 0 8.5 0ZM4.05875 10.625C1.80625 10.7312 0 12.58 0 14.875V17H17V14.875C17 12.58 15.215 10.7312 12.9412 10.625C11.7937 11.9213 10.2213 12.75 8.5 12.75C6.77875 12.75 5.20625 11.9213 4.05875 10.625Z" fill="#D9D9D9"/>
<path d="M4.4 5.3125C4.4 2.43009 6.27468 0.15 8.5 0.15C10.7253 0.15 12.6 2.43009 12.6 5.3125C12.6 8.19491 10.7253 10.475 8.5 10.475C6.27468 10.475 4.4 8.19491 4.4 5.3125ZM0.15 14.875C0.15 12.6853 1.85451 10.9162 3.99504 10.7788C5.16175 12.0705 6.75311 12.9 8.5 12.9C10.2469 12.9 11.8383 12.0704 13.005 10.7787C15.1654 10.9158 16.85 12.6845 16.85 14.875V16.85H0.15V14.875Z" stroke="#818181" stroke-opacity="0.6" stroke-width="0.3"/>
</g>
</g>
</svg>
